<svg width="24" height="24" viewBox="0 0 24 24" fill="none" xmlns="http://www.w3.org/2000/svg">
<path d="M18.7454 19.83H5.63536C5.35481 19.8313 5.07675 19.7772 4.81717 19.6707C4.5576 19.5643 4.3216 19.4076 4.12276 19.2097C3.92391 19.0118 3.76612 18.7765 3.65845 18.5174C3.55078 18.2584 3.49536 17.9806 3.49536 17.7V9.08C3.49795 8.88189 3.5778 8.69263 3.7179 8.55253C3.85799 8.41244 4.04725 8.33259 4.24536 8.33H20.0754C20.2743 8.33 20.465 8.40902 20.6057 8.54967C20.7463 8.69032 20.8254 8.88109 20.8254 9.08V17.7C20.8255 18.2564 20.608 18.7907 20.2193 19.1887C19.8306 19.5868 19.3016 19.8169 18.7454 19.83V19.83ZM5.04536 9.83V17.7C5.04799 17.868 5.11657 18.0282 5.23631 18.1461C5.35605 18.264 5.51734 18.33 5.68536 18.33H18.7454C18.9124 18.33 19.0727 18.2636 19.1908 18.1455C19.309 18.0273 19.3754 17.8671 19.3754 17.7V9.83H5.04536Z" fill="black"/>
<path d="M15.0054 14.83C14.8065 14.83 14.6157 14.751 14.475 14.6103C14.3344 14.4697 14.2554 14.2789 14.2554 14.08V9.22L12.8954 5.67H3.06537L4.88537 8.67C4.94703 8.75406 4.99049 8.85006 5.01297 8.95187C5.03545 9.05367 5.03646 9.15904 5.01593 9.26126C4.9954 9.36347 4.95379 9.46028 4.89375 9.54551C4.83371 9.63075 4.75656 9.70252 4.66722 9.75626C4.57788 9.81001 4.47832 9.84453 4.3749 9.85764C4.27147 9.87074 4.16644 9.86214 4.06652 9.83238C3.96661 9.80262 3.87399 9.75236 3.79459 9.6848C3.71518 9.61724 3.65074 9.53386 3.60537 9.44L1.10537 5.3C1.03646 5.18705 1 5.05731 1 4.925C1 4.79269 1.03646 4.66294 1.10537 4.55C1.16815 4.43508 1.2607 4.33916 1.3733 4.2723C1.4859 4.20545 1.61441 4.17011 1.74537 4.17H13.4154C13.5669 4.16994 13.7148 4.21577 13.8398 4.30145C13.9648 4.38713 14.0608 4.50865 14.1154 4.65L15.7454 8.81C15.7811 8.89541 15.7981 8.98746 15.7954 9.08V14.08C15.797 14.1824 15.7773 14.284 15.7377 14.3784C15.698 14.4727 15.6392 14.5579 15.565 14.6284C15.4907 14.6989 15.4026 14.7532 15.3063 14.7879C15.21 14.8226 15.1075 14.8369 15.0054 14.83V14.83Z" fill="black"/>
<path d="M20.0754 9.83H15.0754C14.9528 9.83065 14.8319 9.80084 14.7237 9.74324C14.6155 9.68564 14.5233 9.60206 14.4554 9.5C14.3848 9.39905 14.3413 9.28169 14.329 9.15913C14.3168 9.03657 14.3362 8.91292 14.3854 8.8L16.0454 4.64C16.1015 4.50052 16.1982 4.38113 16.3231 4.29732C16.4479 4.21351 16.595 4.16915 16.7454 4.17H21.7454C21.8679 4.16934 21.9888 4.19915 22.097 4.25676C22.2052 4.31436 22.2974 4.39794 22.3654 4.5C22.435 4.6012 22.4787 4.71796 22.4927 4.84002C22.5066 4.96208 22.4904 5.08569 22.4454 5.2L20.7454 9.36C20.6923 9.49556 20.6004 9.61245 20.4812 9.69605C20.3621 9.77965 20.2209 9.82624 20.0754 9.83V9.83ZM16.1854 8.33H19.5754L20.6354 5.67H17.2554L16.1854 8.33Z" fill="black"/>
</svg>
