<!-- icon666.com - MILLIONS OF FREE VECTOR ICONS --><svg viewBox="0 0 64 64" xmlns="http://www.w3.org/2000/svg"><g id="Layer_30" data-name="Layer 30"><path d="m11.061 41.061 15.878 15.878a3.624 3.624 0 0 0 2.561 1.061 3.624 3.624 0 0 0 2.561-1.061l28.878-28.878a3.624 3.624 0 0 0 1.061-2.561 3.624 3.624 0 0 0 -1.061-2.561l-15.878-15.878a3.624 3.624 0 0 0 -2.561-1.061 3.624 3.624 0 0 0 -2.561 1.061l-28.878 28.878a3.624 3.624 0 0 0 -1.061 2.561 3.624 3.624 0 0 0 1.061 2.561z" fill="#3b5892"></path><rect fill="#5e87ca" height="30" rx="3" width="52" x="2" y="21"></rect><path d="m43 21 8-8-4-4-12 12z" fill="#b5b5b5"></path><path d="m45 11-10 10h4l8-8z" fill="#ccc"></path><path d="m6 25h10v10h-10z" fill="#f0ae42"></path><path d="m6 25h8v7h-8z" fill="#f9d266"></path><path d="m6 30h4v2h-4z" fill="#d5883e"></path><path d="m12 28h4v2h-4z" fill="#d5883e"></path><path d="m20 25h30v4h-30z" fill="#3b5892"></path><path d="m48 26v-1h-28v2h27a1 1 0 0 0 1-1z" fill="#4c6cb5"></path><path d="m6 41h12v4h-12z" fill="#c8cded"></path><path d="m22 41h12v4h-12z" fill="#c8cded"></path><path d="m38 41h12v4h-12z" fill="#c8cded"></path><g fill="#e2e7f6"><path d="m48 42v-1h-10v2h9a1 1 0 0 0 1-1z"></path><path d="m32 42v-1h-10v2h9a1 1 0 0 0 1-1z"></path><path d="m16 42v-1h-10v2h9a1 1 0 0 0 1-1z"></path><path d="m19 32h32v2h-32z"></path><path d="m19 36h32v2h-32z"></path></g></g></svg>