<!-- icon666.com - MILLIONS OF FREE VECTOR ICONS --><svg version="1.1" id="Layer_1" xmlns="http://www.w3.org/2000/svg" xmlns:xlink="http://www.w3.org/1999/xlink" x="0px" y="0px" viewBox="0 0 512 512" style="enable-background:new 0 0 512 512;" xml:space="preserve"><path style="fill:#ACE5AC;" d="M500.894,75.523c6.134,0,11.106,4.972,11.106,11.106v33.319c0,6.134-4.972,11.106-11.106,11.106 c6.134,0,11.106,4.972,11.106,11.106v33.319c0,6.134-4.972,11.106-11.106,11.106c6.134,0,11.106,4.972,11.106,11.106v33.319 c0,6.134-4.972,11.106-11.106,11.106c6.134,0,11.106,4.972,11.106,11.106v33.319c0,6.134-4.972,11.106-11.106,11.106 c6.134,0,11.106,4.972,11.106,11.106v33.319c0,6.134-4.972,11.106-11.106,11.106c6.134,0,11.106,4.972,11.106,11.106v33.319 c0,6.134-4.972,11.106-11.106,11.106c6.134,0,11.106,4.972,11.106,11.106v33.319c0,6.134-4.972,11.106-11.106,11.106H89.961 c-6.134,0-11.106-4.972-11.106-11.106v-33.319c0-6.134,4.972-11.106,11.106-11.106c-6.134,0-11.106-4.972-11.106-11.106v-33.319 c0-6.134,4.972-11.106,11.106-11.106c-6.134,0-11.106-4.972-11.106-11.106v-33.319c0-6.134,4.972-11.106,11.106-11.106 c-6.134,0-11.106-4.972-11.106-11.106v-33.319c0-6.134,4.972-11.106,11.106-11.106c-6.134,0-11.106-4.972-11.106-11.106v-33.319 c0-6.134,4.972-11.106,11.106-11.106c-6.134,0-11.106-4.972-11.106-11.106v-33.319c0-6.134,4.972-11.106,11.106-11.106 c-6.134,0-11.106-4.972-11.106-11.106V86.629c0-6.134,4.972-11.106,11.106-11.106c-6.134,0-11.106-4.972-11.106-11.106V31.098 c0-6.134,4.972-11.106,11.106-11.106h410.933c6.134,0,11.106,4.972,11.106,11.106v33.319C512,70.55,507.028,75.523,500.894,75.523z"></path><path style="fill:#517A51;" d="M512,364.286v33.319c0,6.134-4.972,11.106-11.106,11.106H89.961c-6.134,0-11.106-4.972-11.106-11.106 v-33.319c0-6.134,4.972-11.106,11.106-11.106h410.933C507.028,353.18,512,358.152,512,364.286z M500.894,242.117H89.961 c-6.134,0-11.106,4.972-11.106,11.106v33.319c0,6.134,4.972,11.106,11.106,11.106h410.933c6.134,0,11.106-4.972,11.106-11.106 v-33.319C512,247.089,507.028,242.117,500.894,242.117z M500.894,131.054H89.961c-6.134,0-11.106,4.972-11.106,11.106v33.319 c0,6.134,4.972,11.106,11.106,11.106h410.933c6.134,0,11.106-4.972,11.106-11.106v-33.319 C512,136.027,507.028,131.054,500.894,131.054z M500.894,19.991H89.961c-6.134,0-11.106,4.972-11.106,11.106v33.319 c0,6.134,4.972,11.106,11.106,11.106h410.933c6.134,0,11.106-4.972,11.106-11.106V31.098C512,24.964,507.028,19.991,500.894,19.991z "></path><path style="fill:#81BC82;" d="M253.223,292.095h158.82c12.268,0,22.213,9.945,22.213,22.213v155.488 c0,12.268-9.945,22.213-22.213,22.213H250.994h-67.733H22.213C9.945,492.009,0,482.064,0,469.796V314.308 c0-12.268,9.945-22.213,22.213-22.213h159.901H253.223z"></path><path style="fill:#ACE5AC;" d="M317.085,392.052c0,55.205-44.752,99.957-99.957,99.957s-99.957-44.752-99.957-99.957 s44.752-99.957,99.957-99.957S317.085,336.847,317.085,392.052z"></path><path style="fill:#517A51;" d="M86.351,392.052c0,4.6-3.729,8.33-8.33,8.33H45.258c-4.6,0-8.33-3.729-8.33-8.33 s3.729-8.33,8.33-8.33h32.764C82.622,383.722,86.351,387.452,86.351,392.052z M388.998,383.722h-32.764c-4.6,0-8.33,3.729-8.33,8.33 s3.729,8.33,8.33,8.33h32.764c4.6,0,8.33-3.729,8.33-8.33S393.598,383.722,388.998,383.722z M258.777,414.265 c0,16.842-13.701,30.542-30.542,30.542h-2.777v2.777c0,4.6-3.729,8.33-8.33,8.33c-4.6,0-8.33-3.729-8.33-8.33v-2.777h-13.883 c-4.6,0-8.33-3.729-8.33-8.33s3.729-8.33,8.33-8.33h13.883v-27.766h-2.777c-16.842,0-30.542-13.701-30.542-30.542 s13.701-30.542,30.542-30.542h2.777v-2.777c0-4.6,3.729-8.33,8.33-8.33c4.6,0,8.33,3.729,8.33,8.33v2.777h13.883 c4.6,0,8.33,3.729,8.33,8.33s-3.729,8.33-8.33,8.33h-13.883v27.766h2.777C245.076,383.722,258.777,397.423,258.777,414.265z M208.798,355.957h-2.777c-7.656,0-13.883,6.227-13.883,13.883s6.227,13.883,13.883,13.883h2.777V355.957z M242.117,414.265 c0-7.656-6.227-13.883-13.883-13.883h-2.777v27.766h2.777C235.89,428.148,242.117,421.92,242.117,414.265z"></path></svg>